<svg width="686" height="561" viewBox="0 0 686 561" fill="none" xmlns="http://www.w3.org/2000/svg">
<g style="mix-blend-mode:color-dodge" opacity="0.2">
<path d="M409.912 553.951C408.424 553.062 408.826 552.73 408.021 551.193C407.216 549.656 406.324 550.124 405.519 548.59C404.714 547.056 404.806 547.005 404.001 545.47C403.196 543.936 402.236 544.438 401.431 542.901C400.626 541.364 401.237 541.044 400.435 539.51C399.63 537.973 402.682 536.376 401.88 534.839C401.075 533.303 401.79 532.929 400.985 531.393C400.18 529.856 397.562 531.228 396.757 529.691C395.952 528.154 394.024 529.165 393.219 527.629C392.414 526.092 393.328 525.614 392.523 524.078C391.718 522.541 393.469 521.625 392.664 520.09C391.859 518.556 392.455 518.243 391.65 516.707C390.846 515.17 388.237 516.537 387.432 515C386.627 513.464 385.521 514.043 384.716 512.506C383.911 510.97 384.059 510.892 383.257 509.358C382.454 507.823 385.305 506.328 384.5 504.791C383.695 503.254 380.718 504.813 379.913 503.279C379.108 501.744 379.127 501.732 378.323 500.198C377.518 498.661 382.665 495.966 381.86 494.432C381.055 492.897 380.017 493.438 379.212 491.904C378.407 490.369 375.857 491.702 375.052 490.166C374.247 488.629 374.395 488.551 373.59 487.017C372.785 485.48 374.438 484.615 373.636 483.078C372.833 481.542 371.968 481.995 371.163 480.458C370.358 478.922 368.471 479.91 367.666 478.374C366.862 476.837 366.811 476.864 366.006 475.327C365.201 473.79 368.682 471.968 367.88 470.431C367.075 468.894 365.977 469.471 365.172 467.934C364.367 466.398 366.82 465.113 366.015 463.579C365.21 462.044 363.402 462.99 362.597 461.453C361.792 459.916 359.292 461.225 358.487 459.688C357.682 458.152 356.072 458.995 355.27 457.459C354.467 455.922 360.538 452.744 359.733 451.207C358.928 449.671 355.097 451.678 354.292 450.141C353.488 448.604 352.076 449.344 351.271 447.809C350.466 446.275 354.649 444.084 353.844 442.547C353.039 441.01 354.12 440.446 353.315 438.909C352.51 437.372 350.447 438.453 349.642 436.917C348.837 435.38 345.937 436.897 345.132 435.363C344.327 433.826 349.114 431.322 348.309 429.786C347.504 428.249 344.887 429.618 344.083 428.082C343.278 426.545 340.8 427.842 339.995 426.305C339.19 424.768 338.615 425.069 337.81 423.532C337.005 421.995 338.179 421.382 337.374 419.845C336.569 418.309 340.332 416.338 339.529 414.804C338.727 413.27 334.501 415.478 333.696 413.941C332.891 412.404 334.224 411.706 333.419 410.17C332.614 408.633 332.311 408.79 331.509 407.254C330.706 405.717 332.454 404.801 331.647 403.262C330.839 401.723 331.043 400.61 329.312 400.472C327.581 400.334 329.945 403.252 328.885 404.641C327.826 406.027 324.555 403.533 323.495 404.92C322.436 406.306 325.243 408.446 324.184 409.835C323.124 411.224 323.646 411.619 322.586 413.008C321.527 414.397 322.033 414.782 320.976 416.171C319.917 417.557 319 416.859 317.941 418.246C316.881 419.632 316.978 419.707 315.921 421.094C314.864 422.48 316.2 423.501 315.14 424.887C314.081 426.273 313.933 426.162 312.873 427.551C311.814 428.94 308.099 426.106 307.04 427.493C305.98 428.879 308.865 431.08 307.806 432.466C306.746 433.855 307.28 434.262 306.223 435.649C305.163 437.038 303.992 436.146 302.935 437.532C301.875 438.921 298.949 436.689 297.892 438.078C296.835 439.466 298.124 440.451 297.065 441.837C296.005 443.223 297.198 444.135 296.139 445.521C295.079 446.908 293.852 445.972 292.793 447.361C291.733 448.75 292.235 449.13 291.176 450.519C290.116 451.908 292.238 453.525 291.18 454.914C290.123 456.302 288.496 455.064 287.437 456.45C286.377 457.837 284.433 456.353 283.373 457.742C282.314 459.131 283.97 460.394 282.91 461.78C281.851 463.167 282.547 463.697 281.487 465.086C280.427 466.475 280.803 466.761 279.744 468.148C278.684 469.534 280.287 470.758 279.227 472.145C278.168 473.531 272.436 469.161 271.376 470.55C270.317 471.939 270.683 472.217 269.623 473.606C268.564 474.995 268.772 475.152 267.713 476.541C266.653 477.93 270.627 480.96 269.568 482.346C268.508 483.733 264.013 480.306 262.953 481.694C261.894 483.083 265.703 485.987 264.643 487.373C263.584 488.76 261.44 487.126 260.381 488.515C259.321 489.904 262.43 492.272 261.37 493.661C260.311 495.05 257.105 492.604 256.046 493.993C254.986 495.382 253.437 494.201 252.377 495.588C251.318 496.977 251.546 497.151 250.486 498.538C249.427 499.924 252.986 502.639 251.926 504.028C250.867 505.417 249.88 504.663 248.821 506.049C247.761 507.436 246.767 506.679 245.707 508.066C244.648 509.452 245.666 510.23 244.609 511.619C243.552 513.008 246.233 515.054 245.174 516.44C244.114 517.827 239.498 514.307 238.438 515.696C237.379 517.085 239.105 518.401 238.048 519.79C236.991 521.179 237.449 521.528 236.39 522.917C235.33 524.305 234.899 523.976 233.841 525.365C232.784 526.754 235.383 528.736 234.324 530.125C233.264 531.514 233.361 531.589 232.302 532.975C231.242 534.362 228.98 532.639 227.921 534.027C226.861 535.416 223.896 533.155 222.836 534.544C221.777 535.933 225.3 538.618 224.24 540.007C223.181 541.396 220.741 539.534 219.682 540.923C218.622 542.312 217.354 541.345 216.295 542.734C215.235 544.123 217.025 545.487 215.965 546.876C214.905 548.265 215.153 548.452 214.093 549.841C213.034 551.229 212.282 550.657 211.22 552.046C210.16 553.435 211.773 554.305 210.211 555.091C208.65 555.876 208.929 553.588 207.193 553.602C205.457 553.617 205.464 554.177 203.728 554.194C201.994 554.211 201.985 553.374 200.251 553.389C198.518 553.404 198.547 556.782 196.813 556.799C195.08 556.816 195.055 554.327 193.322 554.344C191.588 554.361 191.62 557.837 189.886 557.854C188.153 557.871 188.128 555.318 186.392 555.335C184.659 555.352 184.685 558.319 182.952 558.336C181.218 558.353 181.225 559.255 179.492 559.272C177.758 559.289 177.7 553.006 175.964 553.021C174.231 553.038 174.24 554.08 172.507 554.097C170.773 554.114 170.778 554.63 169.044 554.647C167.311 554.664 167.347 558.615 165.614 558.632C163.88 558.649 163.834 553.813 162.1 553.828C160.367 553.842 160.372 554.516 158.638 554.533C156.904 554.55 156.921 556.443 155.188 556.458C153.454 556.472 153.445 555.607 151.711 555.624C149.977 555.641 149.975 555.544 148.241 555.561C146.508 555.578 146.539 559.18 144.806 559.194C143.072 559.211 143.043 556.164 141.31 556.181C139.576 556.198 139.588 557.708 137.854 557.725C136.121 557.742 136.133 559.177 134.399 559.192C132.666 559.209 132.649 557.558 130.915 557.575C129.182 557.592 129.167 556.235 127.434 556.252C125.7 556.269 125.698 556.186 123.964 556.203C122.23 556.22 122.267 560.19 120.533 560.207C118.8 560.224 118.758 555.934 117.025 555.951C115.291 555.968 115.286 555.512 113.553 555.529C111.819 555.546 111.822 555.861 110.086 555.878C108.352 555.895 108.381 559.175 106.648 559.192C104.914 559.209 104.912 558.913 103.176 558.93C101.44 558.947 101.452 560.263 99.7182 560.28C97.9846 560.297 97.9215 553.515 96.1855 553.532C94.4495 553.549 94.4495 553.505 92.716 553.52C90.9824 553.534 91.0018 555.677 89.2658 555.692C87.5298 555.706 87.5637 559.109 85.8277 559.124C84.0917 559.138 84.065 556.084 82.329 556.099C80.5954 556.116 80.6342 560.348 78.8982 560.362C77.1622 560.377 77.1622 560.188 75.4262 560.202C73.6902 560.217 73.666 557.563 71.9324 557.58C70.1988 557.597 70.2085 558.881 68.4749 558.898C66.7414 558.915 66.7292 557.609 64.9932 557.626C63.2572 557.643 63.2306 554.742 61.497 554.758C59.7634 554.775 59.8167 560.629 58.0807 560.644C56.3447 560.661 56.3447 560.411 54.6087 560.428C52.8727 560.445 52.8727 560.236 51.1391 560.251C49.4056 560.265 49.408 560.644 47.6744 560.658C45.9408 560.673 45.8899 555.408 44.1563 555.423C42.4228 555.437 42.4252 555.818 40.6916 555.832C38.958 555.847 38.9823 558.557 37.2463 558.574C35.5103 558.591 35.4739 554.511 33.7379 554.528C32.0019 554.545 32.0237 556.807 30.2877 556.821C28.5517 556.838 28.5493 556.521 26.8157 556.538C25.0821 556.555 25.0942 557.958 23.3582 557.975C21.6222 557.992 21.6028 555.827 19.8668 555.844C18.1308 555.861 18.1454 557.357 16.4094 557.374C14.6734 557.391 14.6637 556.213 12.9277 556.23C11.1917 556.247 11.1844 555.524 9.45081 555.539C7.71723 555.554 7.76087 560.517 6.02729 560.534C4.29371 560.551 4.29129 560.53 2.55528 560.547C0.81928 560.564 1.423 558.826 0.705324 557.245C-0.0123534 555.665 2.6062 558.746 3.74818 557.425C4.89016 556.104 1.76487 553.406 2.90685 552.085C4.04883 550.764 2.94079 549.807 4.08277 548.483C5.22475 547.16 8.94407 550.371 10.086 549.048C11.228 547.725 10.6389 547.218 11.7808 545.895C12.9228 544.571 9.73206 541.82 10.874 540.497C12.016 539.173 12.3094 539.428 13.4514 538.104C14.5934 536.781 13.4829 535.823 14.6249 534.503C15.7669 533.182 17.5417 534.711 18.6812 533.388C19.8208 532.064 21.0403 533.116 22.1823 531.793C23.3243 530.469 23.9692 531.027 25.1112 529.703C26.2532 528.38 28.0256 529.909 29.1675 528.586C30.3095 527.263 29.2645 526.363 30.4065 525.04C31.5485 523.716 32.3098 524.373 33.4494 523.05C34.5889 521.727 33.2918 520.607 34.4313 519.283C35.5709 517.96 36.4025 518.677 37.5445 517.354C38.6865 516.03 34.6932 512.586 35.8352 511.263C36.9771 509.939 37.9591 510.788 39.1011 509.464C40.2431 508.141 43.6084 511.045 44.7504 509.721C45.8923 508.398 42.1488 505.169 43.2908 503.848C44.4327 502.527 47.7762 505.412 48.9182 504.088C50.0602 502.765 48.1011 501.075 49.2407 499.752C50.3803 498.429 48.4115 496.727 49.5535 495.406C50.6954 494.085 54.2329 497.134 55.3749 495.813C56.5169 494.49 55.0379 493.215 56.1799 491.892C57.3218 490.568 57.9304 491.094 59.0724 489.771C60.2144 488.447 57.2055 485.851 58.3474 484.53C59.4894 483.209 62.4838 485.791 63.6258 484.467C64.7677 483.144 64.4889 482.904 65.6285 481.581C66.768 480.257 66.2783 479.833 67.4202 478.51C68.5622 477.186 67.7791 476.51 68.9211 475.189C70.063 473.868 71.3214 474.951 72.4634 473.628C73.6054 472.305 74.7085 473.257 75.8505 471.936C76.9925 470.615 72.878 467.064 74.02 465.741C75.1619 464.417 77.6762 466.589 78.8182 465.266C79.9602 463.942 81.5192 465.288 82.6588 463.964C83.7983 462.641 83.0467 461.991 84.1887 460.668C85.3307 459.344 85.8641 459.807 87.0061 458.484C88.148 457.16 87.1685 456.317 88.3105 454.996C89.4525 453.675 88.6402 452.972 89.7798 451.651C90.9193 450.33 89.3579 448.98 90.4975 447.657C91.637 446.333 91.1545 445.916 92.2965 444.595C93.4385 443.274 98.3943 447.547 99.5363 446.224C100.678 444.901 97.9967 442.588 99.1387 441.265C100.281 439.941 98.5786 438.475 99.7206 437.154C100.863 435.833 103.299 437.935 104.439 436.611C105.578 435.288 107.04 436.551 108.182 435.227C109.324 433.904 109.118 433.727 110.26 432.406C111.402 431.085 111.628 431.279 112.77 429.955C113.912 428.632 111.744 426.763 112.886 425.44C114.028 424.116 113.245 423.442 114.387 422.119C115.529 420.796 119.158 423.927 120.298 422.606C121.438 421.285 118.923 419.113 120.065 417.792C121.207 416.469 119.302 414.826 120.444 413.502C121.586 412.179 126.066 416.045 127.208 414.724C128.35 413.403 125.744 411.154 126.886 409.83C128.028 408.507 130.069 410.269 131.211 408.948C132.353 407.627 130.731 406.226 131.873 404.905C133.015 403.584 133.173 403.72 134.315 402.396C135.457 401.073 134.69 400.414 135.832 399.09C136.974 397.767 138.354 398.959 139.496 397.636C140.638 396.312 139.535 395.36 140.674 394.039C141.814 392.718 142.199 393.045 143.341 391.722C144.483 390.398 141.998 388.256 143.14 386.932C144.282 385.609 147.235 388.156 148.375 386.835C149.514 385.514 147.162 383.481 148.304 382.157C149.446 380.834 149.793 381.134 150.935 379.811C152.077 378.488 150.644 377.254 151.786 375.93C152.928 374.607 157.438 378.5 158.58 377.176C159.722 375.853 158.051 374.413 159.193 373.09C160.335 371.766 161.368 372.658 162.51 371.335C163.652 370.012 164.113 370.409 165.255 369.086C166.397 367.762 164.775 366.364 165.917 365.043C167.059 363.722 168.174 364.681 169.316 363.36C170.458 362.039 167.097 359.138 168.239 357.815C169.381 356.491 173.035 359.645 174.177 358.321C175.319 356.998 171.913 354.06 173.055 352.737C174.197 351.413 178.629 355.238 179.771 353.915C180.913 352.591 180.661 352.376 181.803 351.052C182.945 349.729 181.584 348.556 182.726 347.232C183.868 345.909 181.611 343.96 182.753 342.637C183.895 341.313 185.912 343.054 187.054 341.73C188.196 340.407 185.704 338.257 186.846 336.933C187.988 335.61 190.807 338.044 191.949 336.72C193.091 335.397 191.171 333.739 192.313 332.415C193.455 331.092 196.842 334.015 197.984 332.692C199.126 331.368 195.632 328.355 196.774 327.035C197.916 325.711 196.6 324.577 197.742 323.253C198.884 321.93 199.677 322.613 200.816 321.29C201.956 319.967 203.323 321.145 204.468 319.824C205.612 318.503 205.66 318.544 206.802 317.22C207.944 315.897 207.629 315.626 208.771 314.302C209.913 312.979 209.229 312.39 210.371 311.066C211.513 309.743 214.488 312.31 215.63 310.986C216.772 309.663 215.15 308.264 216.292 306.941C217.434 305.618 219.694 307.566 220.836 306.245C221.978 304.924 220.712 303.831 221.857 302.508C222.999 301.184 220.727 299.223 221.869 297.9C223.011 296.577 225.835 299.015 226.98 297.692C228.124 296.368 228.987 297.115 230.129 295.791C231.271 294.468 227.358 291.091 228.5 289.768C229.642 288.445 231.33 289.901 232.474 288.578C233.618 287.255 234.292 287.836 235.437 286.513C236.581 285.189 237.226 285.747 238.368 284.424C239.51 283.1 239.636 283.207 240.781 281.883C241.925 280.56 238.608 279.125 238.744 277.38C238.88 275.635 237.493 277.789 236.572 276.313C235.65 274.837 236.666 274.2 235.745 272.724C234.823 271.248 235.226 270.993 234.305 269.517C233.383 268.041 232.418 268.642 231.497 267.166C230.576 265.69 234.957 262.951 234.033 261.475C233.109 259.999 232.666 260.275 231.744 258.799C230.823 257.323 229.644 258.057 228.721 256.581C227.797 255.105 226.051 256.196 225.127 254.719C224.204 253.243 226.597 251.748 225.675 250.272C224.754 248.796 221.99 250.521 221.066 249.045C220.143 247.569 218.736 248.447 217.815 246.97C216.894 245.494 221.066 242.886 220.143 241.41C219.219 239.934 219.738 239.609 218.814 238.133C217.89 236.657 215.007 238.458 214.083 236.982C213.16 235.506 213.742 235.142 212.818 233.666C211.894 232.19 212.066 232.083 211.142 230.605C210.219 229.129 213.359 227.168 212.435 225.689C211.511 224.211 209.928 225.202 209.004 223.726C208.08 222.25 210.066 221.009 209.142 219.533C208.218 218.057 207.067 218.776 206.143 217.3C205.219 215.824 201.878 217.911 200.954 216.435C200.031 214.959 198.69 215.798 197.766 214.319C196.842 212.84 197.477 212.445 196.556 210.969C195.635 209.493 199.454 207.106 198.53 205.63C197.606 204.153 193.458 206.745 192.534 205.268C191.61 203.792 196.357 200.826 195.434 199.349C194.51 197.873 190.977 200.081 190.053 198.603C189.13 197.124 189.983 196.594 189.059 195.115C188.136 193.636 189.535 192.764 188.611 191.288C187.687 189.812 185.871 190.946 184.947 189.47C184.023 187.994 184.171 187.902 183.25 186.426C182.326 184.949 179.957 186.43 179.034 184.954C178.11 183.478 180.11 182.23 179.186 180.751C178.263 179.275 181.558 177.217 180.634 175.739C179.71 174.26 176.958 175.984 176.034 174.505C175.111 173.027 176.978 171.863 176.054 170.387C175.13 168.911 175.373 168.761 174.449 167.285C173.525 165.808 173.654 165.728 172.732 164.252C171.811 162.776 173.115 161.959 172.191 160.483C171.268 159.007 165.357 162.699 164.433 161.223C163.509 159.746 167.905 157 166.983 155.524C166.062 154.048 163.451 155.679 162.527 154.201C161.603 152.722 163.897 151.292 162.973 149.816C162.049 148.34 162.748 147.904 161.824 146.427C160.9 144.951 157.074 147.341 156.15 145.865C155.227 144.389 156.187 143.788 155.265 142.312C154.344 140.836 153.672 141.255 152.749 139.779C151.825 138.303 154.662 136.529 153.738 135.052C152.814 133.576 154.463 132.546 153.539 131.07C152.615 129.594 148.552 132.132 147.628 130.656C146.704 129.179 144.917 130.294 143.994 128.818C143.07 127.342 145.688 125.706 144.765 124.23C143.841 122.754 141.651 124.121 140.73 122.645C139.809 121.169 144.495 118.238 143.572 116.762C142.648 115.286 138.698 117.754 137.774 116.275C136.851 114.796 137.556 114.358 136.632 112.882C135.709 111.405 139.729 108.892 138.805 107.416C137.881 105.94 137.498 106.18 136.574 104.704C135.651 103.227 135.718 103.184 134.795 101.708C133.871 100.232 130.966 102.045 130.042 100.569C129.119 99.0924 127.409 100.159 126.488 98.6828C125.567 97.2067 130.025 94.4193 129.102 92.9407C128.178 91.4622 126.267 92.6571 125.344 91.181C124.42 89.7049 121.76 91.3652 120.836 89.8891C119.913 88.413 121.435 87.4604 120.514 85.9843C119.592 84.5082 122.133 82.9182 121.21 81.4421C120.286 79.9659 115.844 82.7412 114.92 81.2627C113.997 79.7841 114.297 79.5975 113.376 78.1214C112.452 76.6453 112.884 76.3762 111.96 74.8977C111.036 73.4192 115.282 70.7675 114.358 69.2914C113.434 67.8153 113.034 68.0649 112.11 66.5864C111.186 65.1078 110.26 65.6896 109.336 64.211C108.413 62.7325 105.2 64.7419 104.276 63.2633C103.353 61.7848 106.497 59.8215 105.574 58.3453C104.65 56.8692 101.815 58.6386 100.892 57.1625C99.9679 55.6864 101.966 54.4381 101.042 52.962C100.118 51.4859 101.9 50.3734 100.977 48.8948C100.053 47.4163 100.475 47.1545 99.5509 45.676C98.6271 44.1974 97.57 44.8591 96.6462 43.383C95.7224 41.9069 96.2437 41.5797 95.32 40.1036C94.3962 38.6275 92.2286 39.98 91.3048 38.5038C90.3811 37.0277 90.0174 37.2556 89.0936 35.777C88.1699 34.2985 86.8679 35.1129 85.9441 33.6368C85.0203 32.1607 86.8969 30.9875 85.9732 29.5114C85.0494 28.0353 86.3344 27.2306 85.4107 25.7545C84.4869 24.2784 81.7908 25.9629 80.867 24.4844C79.9432 23.0059 79.885 23.0446 78.9613 21.5661C78.0375 20.0876 82.0066 17.608 81.0828 16.1294C80.159 14.6509 75.5717 17.5183 74.6479 16.0398C73.7242 14.5612 74.631 13.9941 73.7048 12.5179C72.7786 11.0418 73.8212 11.1582 74.6504 9.6263C75.4796 8.09444 74.8443 10.1038 76.5779 10.0893C78.3115 10.0747 78.2751 6.1481 80.0111 6.13114C81.7471 6.11417 81.7568 7.36487 83.4904 7.3479C85.224 7.33094 85.2676 11.8999 87.0012 11.8853C88.7348 11.8708 88.7202 10.2783 90.4562 10.2613C92.1922 10.2444 92.1801 9.03974 93.9137 9.02277C95.6473 9.0058 95.6182 5.84997 97.3542 5.83543C99.0902 5.82089 99.1096 8.02658 100.843 8.01203C102.577 7.99749 102.582 8.5477 104.318 8.53316C106.054 8.51861 106.022 5.29976 107.756 5.2828C109.489 5.26583 109.538 10.4456 111.271 10.431C113.005 10.4165 112.988 8.538 114.721 8.52346C116.455 8.50892 116.441 6.86798 118.174 6.85102C119.908 6.83405 119.927 8.80463 121.661 8.78766C123.394 8.77069 123.421 11.6672 125.157 11.6502C126.893 11.6332 126.891 11.5969 128.624 11.5799C130.358 11.5629 130.348 10.351 132.082 10.3341C133.815 10.3171 133.781 6.48259 135.515 6.46563C137.248 6.44866 137.239 5.24401 138.972 5.22947C140.706 5.21493 140.762 11.2139 142.495 11.1994C144.229 11.1848 144.2 8.029 145.936 8.01446C147.672 7.99991 147.645 5.39429 149.381 5.37975C151.117 5.36521 151.173 11.7011 152.909 11.6841C154.645 11.6672 154.637 11.1533 156.373 11.1364C158.109 11.1194 158.076 7.54423 159.809 7.52727C161.543 7.5103 161.523 5.44277 163.259 5.4258C164.995 5.40884 165.029 9.30151 166.765 9.28697C168.501 9.27242 168.504 9.78143 170.24 9.76689C171.973 9.74992 171.968 9.05186 173.702 9.03489C175.436 9.01792 175.406 5.65122 177.14 5.63425C178.874 5.61729 178.876 5.67303 180.61 5.65849C182.343 5.64395 182.394 11.1315 184.13 11.1145C185.866 11.0976 185.861 10.8091 187.597 10.7946C189.333 10.78 189.326 10.1377 191.062 10.1232C192.798 10.1086 192.742 4.1242 194.476 4.10724C196.209 4.09027 196.214 4.59685 197.95 4.58231C199.686 4.56777 199.684 4.42234 201.417 4.40537C203.151 4.3884 203.212 10.8406 204.945 10.8261C206.679 10.8116 206.672 9.98746 208.408 9.97291C210.144 9.95837 210.095 4.93861 211.831 4.92165C213.565 4.90468 213.599 8.55739 215.335 8.54043C217.068 8.52346 217.061 7.66542 218.797 7.65088C220.533 7.63634 220.533 7.63876 222.266 7.62422C224 7.60968 224.002 7.75511 225.738 7.73814C227.474 7.72117 227.445 4.63321 229.179 4.61867C230.913 4.60412 230.932 6.75164 232.668 6.73467C234.404 6.71771 234.431 9.73538 236.164 9.72083C237.898 9.70629 237.905 10.2517 239.639 10.2371C241.372 10.2226 241.326 5.06223 243.06 5.04768C244.793 5.03314 244.808 6.60863 246.544 6.59409C248.28 6.57955 248.287 7.60968 250.023 7.59513C251.759 7.58059 251.786 10.6734 253.522 10.6564C255.258 10.6395 255.236 8.42893 256.972 8.41196C258.708 8.395 258.698 7.39153 260.432 7.37456C262.165 7.3576 262.139 4.35689 263.875 4.33992C265.611 4.32296 265.618 5.25856 267.354 5.24401C269.09 5.22947 269.105 6.80739 270.838 6.79284C272.572 6.7783 272.598 9.38392 274.334 9.36938C276.07 9.35484 276.08 10.4262 277.814 10.4092C279.547 10.3922 279.504 5.30219 281.24 5.28522C282.976 5.26825 281.363 9.03489 282.85 9.93413C284.336 10.8334 285.449 8.42651 286.246 9.97776C287.044 11.529 285.395 12.3774 286.196 13.9286C286.996 15.4799 289.605 14.1346 290.402 15.6859C291.2 17.2371 289.265 18.2358 290.065 19.787C290.865 21.3383 289.721 21.9273 290.519 23.4785C291.316 25.0298 291.379 24.9983 292.179 26.5495C292.98 28.1008 293.816 27.6693 294.614 29.2206C295.411 30.7718 295.293 30.8348 296.093 32.3861C296.893 33.9373 297.969 33.3823 298.767 34.9335C299.565 36.4848 297.031 37.7912 297.831 39.3425C298.631 40.8938 301.165 39.5873 301.965 41.1386C302.765 42.6898 305.541 41.2598 306.341 42.811C307.142 44.3623 306.829 44.5247 307.629 46.0759C308.429 47.6272 304.644 49.5759 305.442 51.1272C306.24 52.6784 307.651 51.9537 308.451 53.505C309.251 55.0562 308.376 55.507 309.173 57.0583C309.971 58.6095 313.942 56.5638 314.743 58.1151C315.543 59.6663 309.993 62.524 310.793 64.0753C311.593 65.6265 313.222 64.7855 314.023 66.3367C314.823 67.888 318.246 66.1259 319.044 67.6771C319.842 69.2284 317.041 70.673 317.841 72.2242C318.641 73.7755 319.902 73.1259 320.702 74.6771C321.502 76.2284 322.809 75.5546 323.609 77.1058C324.409 78.6571 321.902 79.949 322.703 81.5002C323.503 83.0515 326.429 81.5439 327.229 83.0951C328.029 84.6464 323.716 86.869 324.516 88.4203C325.316 89.9715 325.256 90.003 326.056 91.5543C326.856 93.1055 328.555 92.2305 329.356 93.7818C330.156 95.333 330.442 95.1852 331.242 96.7364C332.042 98.2877 332.081 98.2683 332.881 99.8196C333.681 101.371 333.657 101.383 334.454 102.934C335.255 104.485 335.082 104.573 335.883 106.124C336.683 107.675 337.764 107.118 338.564 108.669C339.364 110.22 340.981 109.386 341.782 110.938C342.582 112.489 340.981 113.313 341.782 114.864C342.582 116.416 343.906 115.734 344.703 117.286C345.503 118.837 345.639 118.767 346.439 120.318C347.239 121.869 347.319 121.828 348.119 123.379C348.92 124.93 345.603 126.639 346.403 128.191C347.203 129.742 348.018 129.322 348.818 130.874C349.618 132.425 351.4 131.509 352.2 133.06C353 134.611 351.562 135.353 352.36 136.904C353.158 138.455 352.302 138.897 353.102 140.45C353.902 142.004 356.169 140.836 356.969 142.387C357.769 143.938 353.33 146.224 354.13 147.778C354.93 149.331 357.364 148.076 358.165 149.629C358.965 151.183 358.346 150.238 360.087 150.388C361.828 150.538 361.804 151.932 362.854 150.538C363.554 149.611 364.255 148.684 364.958 147.758C366.008 146.367 366.883 147.026 367.933 145.635C368.983 144.244 366.677 142.503 367.727 141.112C368.777 139.721 370.36 140.916 371.41 139.522C372.46 138.128 370.474 136.63 371.524 135.239C372.574 133.848 371.187 132.801 372.239 131.409C373.289 130.018 377.564 133.242 378.613 131.851C379.663 130.459 377.818 129.066 378.868 127.674C379.918 126.283 377.379 124.368 378.432 122.974C379.484 121.581 384.212 125.151 385.264 123.76C386.316 122.368 385.257 121.571 386.307 120.177C387.357 118.784 384.445 116.588 385.494 115.196C386.544 113.805 386.246 113.577 387.296 112.186C388.346 110.795 392.96 114.275 394.01 112.882C395.059 111.49 390.024 107.692 391.076 106.298C392.126 104.907 397.389 108.877 398.442 107.484C399.494 106.09 398.122 105.057 399.172 103.666C400.221 102.275 397.183 99.982 398.236 98.5907C399.286 97.1994 402.833 99.8753 403.885 98.4816C404.935 97.0903 401.509 94.5041 402.559 93.1128C403.609 91.7215 407.478 94.6398 408.528 93.2461C409.578 91.8524 407.658 90.4054 408.707 89.0141C409.757 87.6228 410.354 88.0712 411.404 86.6775C412.453 85.2838 410.414 83.7471 411.467 82.3558C412.519 80.9646 413.894 82.002 414.943 80.6083C415.993 79.2146 413.932 77.6609 414.985 76.2696C416.037 74.8783 418.609 76.8198 419.659 75.4261C420.709 74.0348 422.055 75.048 423.107 73.6567C424.159 72.2654 424.453 72.4884 425.505 71.0947C426.557 69.701 423.059 67.0639 424.108 65.6726C425.158 64.2813 424.775 63.9905 425.825 62.5967C426.875 61.203 430.909 64.2474 431.959 62.8561C433.009 61.4648 428.495 58.0569 429.547 56.6656C430.599 55.2744 429.668 54.5739 430.718 53.1802C431.768 51.7889 436.743 55.541 437.793 54.1497C438.843 52.7584 437.223 51.5368 438.275 50.1431C439.328 48.7494 439.623 48.9772 440.676 47.586C441.728 46.1947 442.162 46.5219 443.212 45.1282C444.262 43.7345 442.288 42.2463 443.338 40.8525C444.388 39.4588 442.904 38.339 443.954 36.9478C445.003 35.5565 447.312 37.2968 448.364 35.9055C449.416 34.5142 448.602 33.8986 449.654 32.5073C450.706 31.1136 453.182 32.9824 454.234 31.5911C455.284 30.1998 455.611 30.4446 456.663 29.0533C457.713 27.662 454.258 25.054 455.308 23.6603C456.358 22.2666 458.647 23.9924 459.697 22.6011C460.746 21.2098 462.267 22.3563 463.316 20.9626C464.366 19.5689 461.77 17.6104 462.819 16.2167C463.872 14.823 465.05 15.7125 466.102 14.3213C467.155 12.93 464.521 10.9449 465.574 9.55117C466.626 8.15746 467.875 9.10033 468.927 7.70663C469.979 6.31292 470.328 7.11037 471.887 6.32262C473.434 5.53972 473.029 7.99991 474.763 7.98537C476.496 7.97083 476.475 5.51064 478.208 5.49367C479.942 5.4767 479.968 8.17685 481.702 8.15989C483.436 8.14292 483.407 5.02102 485.143 5.00648C486.879 4.99194 486.854 2.60688 488.59 2.59234C490.326 2.5778 490.329 2.94864 492.062 2.9341C493.796 2.91956 493.847 8.18655 495.58 8.16958C497.314 8.15261 497.309 7.68724 499.043 7.67027C500.776 7.6533 500.779 7.81328 502.512 7.79631C504.246 7.77934 504.2 2.79594 505.936 2.7814C507.672 2.76686 507.701 6.21112 509.437 6.19416C511.173 6.17719 511.178 6.80496 512.911 6.788C514.645 6.77103 514.63 5.02102 516.364 5.00406C518.098 4.98709 518.071 2.07364 519.807 2.0591C521.54 2.04213 521.565 4.58716 523.298 4.57261C525.032 4.55807 525.029 4.30357 526.763 4.2866C528.497 4.26963 528.523 7.18066 530.259 7.16611C531.995 7.15157 531.99 6.66923 533.724 6.65469C535.458 6.64014 535.433 3.82122 537.167 3.80668C538.9 3.79214 538.891 2.80079 540.627 2.78382C542.363 2.76686 542.373 3.9715 544.106 3.95696C545.84 3.94242 545.825 2.17059 547.559 2.15363C549.292 2.13666 549.316 4.55807 551.05 4.5411C552.784 4.52414 552.791 5.19554 554.525 5.17857C556.258 5.1616 556.261 5.2828 557.994 5.26583C559.728 5.24886 559.713 3.51825 561.447 3.50128C563.18 3.48431 563.222 7.78177 564.955 7.7648C566.689 7.74783 566.643 2.55356 568.376 2.53659C570.11 2.51963 570.156 7.39638 571.889 7.38184C573.623 7.36729 573.57 1.51131 575.306 1.49677C577.042 1.48223 577.054 3.0359 578.79 3.01894C580.526 3.00197 580.555 6.39534 582.291 6.38079C584.027 6.36625 583.99 0.675089 585.724 0.658122C587.458 0.641156 587.506 5.84755 589.242 5.83301C590.978 5.81846 590.954 3.45523 592.69 3.43826C594.426 3.42129 594.424 3.36312 596.16 3.34615C597.896 3.32919 597.891 3.02378 599.627 3.00682C601.363 2.98985 601.358 2.68445 603.094 2.6699C604.83 2.65536 604.815 1.09926 606.549 1.08229C608.282 1.06533 608.319 4.73743 610.052 4.72047C611.786 4.7035 611.793 5.46216 613.529 5.44519C615.265 5.42823 615.258 4.75198 616.992 4.73743C618.725 4.72289 618.713 3.25647 620.447 3.2395C622.18 3.22254 622.183 3.38736 623.919 3.37039C625.655 3.35342 625.65 2.94622 627.386 2.93168C629.122 2.91713 629.136 4.56292 630.87 4.54595C632.604 4.52898 632.574 1.24711 634.308 1.23015C636.042 1.21318 636.061 3.24678 637.797 3.23223C639.533 3.21769 639.54 4.05876 641.274 4.04179C643.007 4.02483 642.986 1.49677 644.719 1.48223C646.453 1.46768 646.472 3.38251 648.206 3.36554C649.939 3.34858 649.971 6.6668 651.707 6.64984C653.443 6.63287 653.416 3.77275 655.15 3.75578C656.883 3.73881 656.857 0.711447 658.593 0.696904C660.329 0.682361 660.372 5.46701 662.108 5.45004C663.844 5.43307 663.803 1.15258 665.539 1.13804C667.275 1.1235 667.28 1.86034 669.016 1.84338C670.752 1.82641 670.752 1.77551 672.485 1.75854C674.219 1.74158 674.217 1.34649 675.953 1.32952C677.689 1.31256 677.725 5.32885 679.461 5.31188C681.197 5.29492 684.807 0.376958 685.527 1.9573C686.252 3.54491 679.643 2.63597 678.503 3.95938C677.364 5.2828 680.753 8.20109 679.614 9.5245C678.474 10.8479 675.95 8.67374 674.811 9.99715C673.671 11.3206 674.209 11.7835 673.07 13.1069C671.93 14.4303 673.54 15.8168 672.401 17.1378C671.261 18.4588 671.283 18.4781 670.143 19.8016C669.004 21.125 666.853 19.2707 665.714 20.5941C664.574 21.9176 666.531 23.6021 665.391 24.9231C664.252 26.2465 664.215 26.215 663.076 27.5384C661.936 28.8618 661.592 28.5661 660.452 29.8895C659.313 31.213 660.377 32.1292 659.238 33.4526C658.098 34.776 655.741 32.7448 654.602 34.0682C653.462 35.3916 654.388 36.1891 653.249 37.5125C652.109 38.8359 651.857 38.6202 650.718 39.9412C649.578 41.2622 649.51 41.2064 648.371 42.5298C647.231 43.8532 648.693 45.1112 647.553 46.4346C646.414 47.758 642.864 44.7016 641.725 46.0226C640.585 47.3436 643.104 49.5153 641.965 50.8363C640.825 52.1573 640.474 51.8567 639.334 53.1802C638.195 54.5036 636.907 53.3935 635.768 54.7169C634.628 56.0403 636.456 57.6158 635.317 58.9368C634.177 60.2578 634.693 60.7037 633.554 62.0271C632.414 63.3506 632.077 63.0597 630.938 64.3831C629.798 65.7065 629.335 65.3066 628.193 66.63C627.051 67.9534 629.558 70.1106 628.419 71.4341C627.279 72.7575 626.452 72.0449 625.31 73.3658C624.168 74.6868 624.476 74.9535 623.337 76.2744C622.197 77.5954 618.878 74.7402 617.738 76.0611C616.599 77.3846 620.418 80.6737 619.278 81.9971C618.138 83.3205 613.864 79.6387 612.722 80.9597C611.58 82.2807 612.004 82.6467 610.865 83.9701C609.725 85.2935 610.288 85.7759 609.146 87.0993C608.004 88.4227 609.15 89.4092 608.011 90.7302C606.871 92.0536 606.146 91.4282 605.004 92.7492C603.865 94.0726 605.708 95.6578 604.568 96.9812C603.428 98.3047 602.779 97.7448 601.639 99.0657C600.5 100.387 596.981 97.3569 595.842 98.6804C594.702 100.004 595.032 100.285 593.893 101.608C592.753 102.932 596.235 105.93 595.095 107.251C593.956 108.572 594.448 108.999 593.308 110.32C592.169 111.641 592.37 111.815 591.228 113.139C590.086 114.462 586.711 111.553 585.571 112.874C584.432 114.195 585.341 114.981 584.201 116.302C583.062 117.623 584.456 118.825 583.316 120.146C582.177 121.467 582.887 122.08 581.748 123.403C580.608 124.727 580.732 124.831 579.59 126.155C578.448 127.478 574.653 124.206 573.511 125.529C572.372 126.853 573.943 128.205 572.803 129.528C571.664 130.852 572.214 131.325 571.075 132.648C569.935 133.971 569.664 133.736 568.524 135.06C567.385 136.383 568.257 137.134 567.118 138.458C565.978 139.781 563.689 137.811 562.55 139.134C561.41 140.458 563.917 142.617 562.778 143.938C561.638 145.259 559.105 143.078 557.965 144.401C556.825 145.725 560.441 148.837 559.301 150.16C558.161 151.484 554.92 148.691 553.78 150.015C552.641 151.338 552.803 151.476 551.661 152.8C550.521 154.123 549.527 153.265 548.388 154.588C547.248 155.912 548.64 157.112 547.501 158.433C546.361 159.754 545.888 159.349 544.749 160.672C543.609 161.996 543.342 161.765 542.203 163.089C541.063 164.412 540.198 163.668 539.058 164.989C537.919 166.313 542.901 170.605 541.762 171.926C540.622 173.247 536.081 169.34 534.941 170.661C533.802 171.982 534.699 172.758 533.559 174.079C532.42 175.4 535.269 177.857 534.129 179.178C532.989 180.499 529.26 177.29 528.121 178.614C526.981 179.937 530.633 183.083 529.493 184.406C528.354 185.73 524.86 182.722 523.72 184.045C522.581 185.369 524.016 186.605 522.876 187.928C521.737 189.252 523.647 190.898 522.508 192.221C521.368 193.544 518.301 190.902 517.159 192.226C516.017 193.549 517.557 194.875 516.417 196.196C515.278 197.517 514.604 196.938 513.462 198.261C512.322 199.585 513.932 200.971 512.793 202.294C511.653 203.618 509.214 201.516 508.072 202.84C506.93 204.163 507.303 204.483 506.164 205.807C505.024 207.13 505.119 207.212 503.979 208.536C502.84 209.859 503.875 210.751 502.733 212.075C501.591 213.398 501.089 212.962 499.947 214.285C498.808 215.608 497.884 214.813 496.744 216.137C495.605 217.46 498.863 220.267 497.724 221.59C496.584 222.914 495.134 221.666 493.992 222.989C492.85 224.312 493.146 224.565 492.007 225.888C490.867 227.211 491.025 227.347 489.885 228.671C488.745 229.994 486.163 227.771 485.024 229.092C483.884 230.413 483.363 229.967 482.223 231.291C481.084 232.614 482.555 233.882 481.416 235.205C480.276 236.529 478.545 235.038 477.406 236.361C476.266 237.685 477.663 238.887 476.521 240.21C475.379 241.534 475.379 241.531 474.239 242.855C473.1 244.178 474.508 245.393 473.366 246.716C472.224 248.039 473.948 249.523 472.809 250.846C471.669 252.17 467.319 248.425 466.18 249.748C465.04 251.072 465.644 251.593 464.504 252.916C463.365 254.24 462.756 253.716 461.617 255.039C460.477 256.363 462.398 258.016 461.256 259.339C460.114 260.663 459.612 260.229 458.472 261.552C457.333 262.876 456.217 261.916 455.078 263.239C453.936 264.563 455.817 266.184 454.678 267.508C453.538 268.831 453.841 269.095 452.702 270.419C451.562 271.742 450.185 270.557 449.043 271.883C447.901 273.208 445.772 273.725 445.636 275.467C445.501 277.198 446.866 278.461 447.787 279.932C448.708 281.403 453.056 278.679 453.979 280.15C454.903 281.622 455.516 281.236 456.438 282.707C457.359 284.179 453.245 286.755 454.166 288.227C455.087 289.698 458.053 287.841 458.976 289.31C459.898 290.781 459.602 290.965 460.523 292.437C461.445 293.908 460.994 294.189 461.917 295.66C462.841 297.132 461.207 298.155 462.128 299.626C463.05 301.097 464.907 299.934 465.828 301.405C466.75 302.876 468.328 301.887 469.249 303.358C470.171 304.83 466.558 307.091 467.482 308.562C468.403 310.034 467.773 310.429 468.694 311.9C469.615 313.371 471.225 312.363 472.147 313.834C473.068 315.306 474.545 314.382 475.466 315.853C476.387 317.325 475.767 317.712 476.688 319.184C477.609 320.655 476.206 321.535 477.127 323.006C478.048 324.477 479.547 323.539 480.468 325.011C481.389 326.482 480.441 327.076 481.363 328.547C482.284 330.018 479.387 331.834 480.308 333.303C481.229 334.771 481.171 334.81 482.095 336.281C483.016 337.753 486.743 335.419 487.664 336.89C488.585 338.361 489.703 337.661 490.625 339.132C491.546 340.603 491.563 340.591 492.487 342.062C493.41 343.534 491.847 344.513 492.768 345.984C493.689 347.455 491.209 349.009 492.13 350.48C493.052 351.952 492.46 352.322 493.381 353.794C494.303 355.265 499.014 352.315 499.937 353.784C500.859 355.255 500.367 355.563 501.288 357.034C502.209 358.506 503.407 357.757 504.328 359.228C505.25 360.699 499.411 364.354 500.335 365.826C501.259 367.297 501.55 367.115 502.471 368.586C503.392 370.058 505.366 368.821 506.287 370.293C507.209 371.764 505.23 373.003 506.152 374.474C507.073 375.945 508.14 375.276 509.061 376.747C509.982 378.219 510.715 377.758 511.636 379.229C512.557 380.701 512.043 381.023 512.965 382.492C513.886 383.961 516.315 382.441 517.237 383.912C518.158 385.383 515.848 386.83 516.769 388.302C517.69 389.773 518.389 389.334 519.31 390.806C520.231 392.277 519.884 392.495 520.806 393.964C521.727 395.433 521.766 395.411 522.687 396.882C523.609 398.353 523.284 398.557 524.205 400.028C525.126 401.5 524.062 402.166 524.983 403.637C525.905 405.109 530.473 402.246 531.394 403.717C532.315 405.189 530.291 406.456 531.212 407.927C532.133 409.399 533.05 408.824 533.971 410.296C534.893 411.767 533.964 412.349 534.885 413.82C535.807 415.291 537.138 414.457 538.059 415.929C538.981 417.4 535.744 419.426 536.665 420.897C537.586 422.369 536.386 423.12 537.308 424.591C538.229 426.063 540.707 424.511 541.628 425.983C542.55 427.454 541.284 428.246 542.208 429.718C543.129 431.189 546.322 429.189 547.243 430.661C548.165 432.132 547.168 432.757 548.09 434.229C549.011 435.7 550.665 434.665 551.586 436.136C552.507 437.607 550.924 438.599 551.848 440.07C552.769 441.541 552.946 441.43 553.87 442.901C554.791 444.372 553.834 444.973 554.755 446.445C555.676 447.916 556.792 447.218 557.713 448.689C558.634 450.16 556.961 451.207 557.883 452.679C558.804 454.15 558.016 454.644 558.94 456.116C559.861 457.587 558.986 458.135 559.907 459.606C560.828 461.077 561.107 460.903 562.031 462.374C562.952 463.845 566.024 461.921 566.946 463.392C567.867 464.863 566.832 465.513 567.753 466.984C568.674 468.455 571.24 466.848 572.161 468.32C573.082 469.791 569.232 472.203 570.153 473.674C571.075 475.145 574.476 473.015 575.4 474.486C576.324 475.957 576.579 475.797 577.5 477.269C578.421 478.74 577.219 479.494 578.14 480.965C579.061 482.436 580.996 481.224 581.917 482.695C582.839 484.167 580.865 485.403 581.787 486.874C582.708 488.345 582.339 488.578 583.261 490.049C584.182 491.521 586.396 490.134 587.317 491.608C588.238 493.079 585.865 494.565 586.789 496.036C587.712 497.508 589.208 496.57 590.13 498.041C591.051 499.512 591.815 499.035 592.736 500.506C593.657 501.977 591.764 503.162 592.685 504.634C593.606 506.105 593.374 506.25 594.295 507.722C595.216 509.193 595.66 508.917 596.581 510.388C597.503 511.859 594.259 513.893 595.18 515.364C596.101 516.835 600.628 514.002 601.549 515.473C602.471 516.944 602.451 516.956 603.373 518.428C604.294 519.899 603.411 520.452 604.333 521.925C605.254 523.397 604.818 523.67 605.741 525.142C606.665 526.613 603.203 528.782 604.124 530.254C605.046 531.725 607.708 530.057 608.632 531.528C609.555 533 608.961 533.371 609.885 534.842C610.806 536.313 612.584 535.201 613.505 536.672C614.426 538.143 614.792 537.915 615.714 539.387C616.638 540.858 614.356 542.288 615.277 543.759C616.199 545.23 617.04 544.704 617.961 546.176C618.885 547.649 621.363 546.096 622.287 547.569C623.211 549.043 624.069 551.702 623.237 553.229C622.406 554.756 619.685 554.429 617.949 554.443C616.213 554.458 616.162 548.709 614.426 548.726C612.69 548.742 612.702 549.814 610.967 549.828C609.23 549.843 609.235 550.153 607.499 550.168C605.763 550.182 605.812 555.161 604.076 555.175C602.34 555.19 602.316 552.429 600.582 552.446C598.848 552.463 598.817 549.142 597.081 549.157C595.345 549.172 595.352 549.78 593.619 549.794C591.885 549.809 591.926 554.468 590.193 554.485C588.459 554.502 588.437 552.206 586.704 552.223C584.97 552.24 584.997 555.108 583.263 555.125C581.53 555.141 581.517 553.816 579.784 553.83C578.05 553.845 578.045 553.387 576.312 553.404C574.578 553.421 574.595 555.263 572.859 555.277C571.123 555.292 571.114 554.068 569.38 554.085C567.646 554.102 567.625 551.801 565.891 551.816C564.157 551.83 564.17 553.248 562.436 553.263C560.702 553.28 560.705 553.641 558.969 553.658C557.233 553.675 557.243 554.579 555.509 554.596C553.775 554.613 553.753 552.276 552.02 552.291C550.286 552.306 550.274 550.982 548.538 550.997C546.805 551.014 546.836 554.618 545.103 554.632C543.369 554.649 543.379 555.706 541.645 555.723C539.912 555.74 539.912 555.83 538.178 555.847C536.444 555.864 536.396 550.728 534.662 550.745C532.929 550.762 532.921 550.085 531.188 550.1C529.454 550.114 529.51 556.332 527.777 556.349C526.043 556.366 525.997 551.368 524.261 551.382C522.527 551.399 522.522 551.094 520.789 551.111C519.055 551.128 519.05 550.626 517.314 550.643C515.581 550.66 515.593 552.005 513.857 552.022C512.121 552.039 512.14 553.937 510.404 553.954C508.671 553.971 508.642 551.011 506.908 551.026C505.175 551.04 505.179 551.772 503.446 551.787C501.712 551.801 501.758 556.887 500.025 556.901C498.291 556.916 498.26 553.539 496.524 553.556C494.788 553.573 494.805 555.294 493.071 555.311C491.337 555.328 491.294 550.808 489.56 550.822C487.827 550.837 487.851 553.709 486.117 553.726C484.384 553.743 484.376 553.227 482.643 553.241C480.909 553.256 480.88 550.211 479.144 550.228C477.408 550.245 477.447 554.422 475.713 554.436C473.98 554.451 473.982 554.722 472.246 554.739C470.51 554.756 470.479 551.309 468.745 551.324C467.011 551.338 467.033 553.719 465.297 553.733C463.561 553.748 463.53 550.102 461.796 550.119C460.063 550.136 460.087 552.929 458.353 552.943C456.62 552.958 456.605 551.559 454.872 551.576C453.138 551.593 453.128 550.703 451.395 550.718C449.661 550.732 449.71 556.077 447.974 556.092C446.238 556.106 446.218 553.845 444.482 553.859C442.746 553.874 442.717 550.677 440.981 550.691C439.245 550.706 439.296 556.109 437.562 556.125C435.826 556.142 435.822 555.457 434.086 555.474C432.35 555.49 432.34 554.395 430.606 554.412C428.873 554.429 428.834 550.541 427.1 550.558C425.367 550.575 425.367 550.783 423.633 550.798C421.9 550.812 421.919 553.042 420.183 553.059C418.447 553.076 418.488 557.32 416.752 557.335C415.016 557.35 414.67 551.666 412.948 551.896C411.227 552.126 411.413 554.821 409.922 553.93L409.912 553.951Z" fill="#0056B4"/>
</g>
<g style="mix-blend-mode:color-dodge" opacity="0.3">
<path d="M259.758 16.9851C259.372 13.3276 255.605 14.4207 255.253 17.659C254.05 17.5911 252.756 18.6043 252.651 20.6936C252.23 29.24 246.9 35.4741 241.952 39.8322C236.569 44.5708 230.707 48.1944 224.631 50.9552C212.229 56.5881 199.199 58.835 186.257 60.8395C172.652 62.9483 158.89 64.8704 145.751 70.3507C133.946 75.2735 123.227 83.5266 112.486 91.6125C100.547 100.6 88.1118 109.595 74.2916 111.476C72.061 111.779 71.4937 115.439 72.6259 117.058C72.8029 118.054 73.0963 118.97 73.4939 119.787C72.929 119.811 72.3665 119.828 71.8016 119.838C68.7975 119.889 68.7902 126.213 71.8016 126.164C87.4571 125.903 102.705 120.158 117.697 114.576C124.888 111.898 132.009 108.819 138.647 104.153C145 99.6887 150.887 94.1212 157.2 89.5644C183.461 70.61 216.239 85.01 241.738 63.3967C253.338 53.5656 261.756 35.9565 259.758 16.9827V16.9851Z" fill="#0056B4"/>
</g>
<g style="mix-blend-mode:color-dodge" opacity="0.3">
<path d="M225.113 14.9854C224.48 13.8583 223.384 13.3008 222.252 14.3334C204.681 30.3864 182.785 29.7684 162.459 30.6918C151.667 31.1814 140.868 32.2867 130.401 36.0873C120.47 39.6915 110.98 45.2373 101.723 51.2265C91.3292 57.9503 81.1605 65.3018 70.599 71.5431C69.6898 72.0812 69.3431 73.0362 69.3843 74.0179C69.1079 74.1802 68.8339 74.3426 68.5575 74.5026C65.8056 76.1096 68.1817 81.5608 70.9142 79.9635C79.7155 74.8226 88.4828 69.5604 97.3301 64.5625C101.435 62.2429 105.595 60.0638 109.877 58.4035C112.067 57.5528 114.288 56.8329 116.533 56.3166C117.731 56.0403 118.933 55.8294 120.145 55.6937C120.255 55.6816 120.364 55.6767 120.473 55.6646C119.789 56.3554 119.51 57.3055 119.527 58.2435C112.925 62.3762 106.793 67.7256 100.931 73.8409C90.8467 84.3579 80.7605 96.2686 67.7647 99.0876C64.8043 99.7299 66.0602 105.826 69.0061 105.186C80.2367 102.75 89.6175 93.7163 98.3945 84.4767C107.892 74.476 117.267 65.0618 128.867 60.0154C140.713 54.8599 152.923 55.4028 165.163 53.8443C175.993 52.4627 186.754 49.5371 196.99 44.4956C208.311 38.9207 218.843 30.8542 227.848 19.9761C229.911 17.4844 227.288 13.5238 225.113 14.983V14.9854Z" fill="#0056B4"/>
</g>
<g style="mix-blend-mode:color-dodge" opacity="0.3">
<path d="M444.191 4.00048C430.968 15.6906 416.837 25.9677 401.957 34.5941C389.001 42.108 374.926 47.3726 362.614 56.3141C361.877 56.8497 361.149 57.4024 360.429 57.9671C352.76 62.5967 345.552 68.123 339.418 75.2709C333.128 82.6005 328.352 91.4863 325.535 101.293C324.097 106.301 323.726 112.508 322.402 118.064C317.866 121.285 312.835 123.597 307.736 125.255C291.624 130.498 274.596 129.133 258.182 132.267C254.56 132.961 250.738 133.763 247.601 136.114C244.529 138.419 242.892 141.965 240.885 145.363C237.551 151.004 231.96 152.877 226.49 154.385C221.042 155.888 215.25 156.981 210.408 160.44C204.574 164.606 202.501 171.281 200.935 178.657C199.298 186.367 196.277 192.693 190.875 197.733C185.866 202.406 179.717 205.329 173.481 206.955C157.198 211.199 140.376 205.496 124.25 202.881C110.173 200.595 95.0291 200.336 82.0697 208.078C79.1723 209.808 76.515 211.987 74.0637 214.467C72.9678 214.423 71.9155 215.102 71.6343 216.743C69.4134 229.739 71.5737 243.33 68.2641 256.099C67.2894 259.858 72.1289 261.542 73.3994 258.2C97.9362 238.603 128.219 234.577 156.795 228.365C164.11 226.775 171.406 225.042 178.612 222.873C185.483 220.805 192.803 218.691 199.058 214.692C202.147 212.717 204.766 210.082 206.834 206.774C209.084 203.169 210.565 199.022 212.622 195.277C216.724 187.807 222.456 181.646 228.381 176.136C251.371 154.768 281.511 144.103 310.873 146.117C318.644 146.65 326.107 148.803 333.805 149.867C340.538 150.798 348.197 149.535 352.835 143.201C358.08 136.039 355.33 127.703 354.571 119.433C353.762 110.62 358.199 103.385 363.47 97.5774C375.268 84.5784 390.295 75.8647 403.856 65.6652C416.18 56.3965 428.092 45.6904 436.399 31.448C438.445 27.9383 440.2 24.2395 441.682 20.3711C442.518 18.1896 441.212 16.173 439.711 15.6567C442.152 13.6376 444.565 11.5701 446.951 9.46138C449.707 7.023 446.989 1.52817 444.191 4.00048Z" fill="#0056B4"/>
</g>
<g style="mix-blend-mode:color-dodge" opacity="0.3">
<path d="M305.995 309.976C297.567 308.977 289.093 308.083 280.685 309.821C272.477 311.517 264.995 316.292 257.595 320.854C250.183 325.425 242.599 329.429 234.583 331.979C226.025 334.701 217.243 335.472 208.444 334.912C175.048 332.789 141.499 312.412 107.986 324.378C94.583 329.165 81.9776 339.105 74.6747 354.305C74.5535 354.499 74.4492 354.715 74.3692 354.96C73.9764 355.801 73.5958 356.656 73.2369 357.529C72.4902 359.342 73.2127 361.053 74.3013 361.846C74.5802 376.117 74.859 390.389 75.1378 404.66C75.1839 407.033 77.2327 408.633 78.9008 407.392C105.644 387.48 134.754 369.59 166.179 366.722C182.227 365.258 198.76 367.937 214.309 361.443C229.085 355.272 241.784 343.037 255.517 334.083C271.18 323.869 288.172 316.127 305.995 316.299C309.266 316.331 309.147 310.349 305.995 309.973V309.976Z" fill="#0056B4"/>
</g>
<g style="mix-blend-mode:color-dodge" opacity="0.3">
<path d="M493.394 167.558C491.779 163.738 489.851 160.204 487.633 156.877C486.77 155.582 484.997 155.733 484.117 156.877C471.129 173.734 454.687 183.393 436.615 187.834C418.711 192.233 400.333 192.56 382.507 197.568C353.907 205.603 330.58 228.12 306.63 248.337C305.006 249.409 303.391 250.504 301.793 251.636C295.048 256.409 288.421 262.255 281.577 267.512C272.08 273.727 262.153 278.759 251.602 281.563C248.886 282.286 249.453 288.03 252.264 287.776C262.929 286.811 272.392 281.355 281.434 274.718C290.945 268.727 300.018 261.506 308.941 253.968C320.516 246.34 332.69 240.254 345.302 235.891C362.337 230.001 379.76 228.132 397.288 226.3C414.505 224.499 432.035 222.405 448.357 214.736C466.786 206.078 481.831 190.093 495.741 172.867C497.671 170.479 495.498 166.945 493.394 167.556V167.558Z" fill="#0056B4"/>
</g>
<g style="mix-blend-mode:color-dodge" opacity="0.3">
<path d="M489.558 333.768C488.767 332.849 487.822 332.689 486.99 332.983C486.391 332.229 485.47 331.763 484.33 332.003C474.542 334.078 464.757 336.153 454.969 338.228C446.769 339.966 438.409 341.42 430.497 344.411C423.289 347.138 416.394 351.234 411.535 357.747C407.403 363.288 404.916 369.912 402.704 376.549C400.52 383.105 398.66 389.911 395.246 395.881C391.124 403.085 384.821 406.594 377.091 407.462C367.494 408.541 357.575 407.84 348.122 405.841C343.51 404.864 339.098 403.245 334.547 402.045C330.338 400.935 326.667 401.536 323.234 404.454C311.605 414.331 303.553 430.944 287.039 431.419C273.421 431.812 260.718 423.377 248.447 418.115C235.478 412.552 221.755 410.07 209.217 418.287C202.848 422.461 197.584 428.232 191.678 433.075C188.735 435.489 185.575 437.736 182.135 439.229C178.513 440.8 174.653 441.631 170.894 442.719C163.364 444.898 156.512 448.558 152.936 456.455C149.517 464.003 148.92 472.634 146.622 480.592C141.892 496.979 132.94 511.845 121.135 523.307C118.16 526.196 115.005 528.826 111.691 531.242C110.772 531.911 110.418 532.883 110.457 533.831C109.914 533.943 109.385 534.229 109.002 534.643C108.527 535.155 108.17 535.996 108.202 536.732C108.233 537.496 108.466 538.289 109.002 538.822C109.538 539.353 110.195 539.687 110.934 539.687H111.223C111.633 539.687 112.05 539.563 112.428 539.362C112.506 539.37 112.583 539.374 112.663 539.374C113.313 539.374 113.842 539.171 114.251 538.841C122.834 540.739 131.582 541.786 140.347 541.791C144.166 541.793 148.84 542.244 152.358 540.329C155.852 538.429 157.011 534.27 158.41 530.622C164.595 514.491 170.199 497.784 178.44 482.703C185.786 469.258 195.88 457.383 209.986 452.512C224.478 447.506 240.095 449.477 254.974 450.752C269.895 452.032 285.65 453.132 299.878 447.08C313.48 441.292 323.42 429.182 336.448 422.344C343.831 418.469 351.352 418.122 359.345 419.659C367.429 421.213 375.554 423.549 383.788 421.816C398.202 418.784 407.296 404.646 416.454 393.571C427.093 380.705 440.402 370.501 455.303 364.228C462.858 361.048 470.624 359.664 478.4 357.398C485.075 355.452 491.371 351.028 492.295 343.042C492.698 339.551 491.786 336.342 489.568 333.763L489.558 333.768Z" fill="#0056B4"/>
</g>
<g style="mix-blend-mode:color-dodge" opacity="0.3">
<path d="M490.671 301.562C491.784 298.782 488.008 295.597 485.482 298.164C473.282 310.565 456.911 317.14 441.001 323.382C437.919 324.591 437.994 329.752 441.842 329.594C461.268 328.792 479.823 320.696 493.554 306.917C495.932 304.529 493.287 301.061 490.671 301.562Z" fill="#0056B4"/>
</g>
</svg>
